{
	"asset":{
		"generator":"Khronos glTF Blender I/O v4.2.57",
		"version":"2.0"
	},
	"scene":0,
	"scenes":[
		{
			"name":"Scene",
			"nodes":[
				6
			]
		}
	],
	"nodes":[
		{
			"mesh":0,
			"name":"hoodie_Rib_2X2_468gsm_hoodie_end_0"
		},
		{
			"mesh":1,
			"name":"hoodie_Sweat_hood_Rib_1X1_319gsm_hood_0"
		},
		{
			"mesh":2,
			"name":"hoodie_Sweat_Rib_1X1_319gsm_hoodie_0"
		},
		{
			"children":[
				0,
				1,
				2
			],
			"name":"hoodie",
			"scale":[
				100,
				99.99999237060547,
				99.99999237060547
			]
		},
		{
			"children":[
				3
			],
			"name":"RootNode"
		},
		{
			"children":[
				4
			],
			"name":"hoodie.fbx",
			"rotation":[
				0.70710688829422,
				0,
				0,
				0.7071066498756409
			],
			"scale":[
				0.009999999776482582,
				0.010000000707805157,
				0.010000000707805157
			]
		},
		{
			"children":[
				5
			],
			"name":"Sketchfab_model",
			"rotation":[
				-0.70710688829422,
				0,
				0,
				0.7071066498756409
			]
		}
	],
	"materials":[
		{
			"doubleSided":true,
			"name":"Rib_2X2_468gsm_hoodie_end.002",
			"normalTexture":{
				"index":0
			},
			"pbrMetallicRoughness":{
				"baseColorTexture":{
					"index":1
				},
				"metallicFactor":0,
				"metallicRoughnessTexture":{
					"index":2
				},
				"roughnessFactor":0.8999999761581421
			}
		},
		{
			"doubleSided":true,
			"name":"Sweat_hood_Rib_1X1_319gsm_hood.002",
			"normalTexture":{
				"index":3
			},
			"pbrMetallicRoughness":{
				"baseColorTexture":{
					"index":4
				},
				"metallicFactor":0,
				"metallicRoughnessTexture":{
					"index":5
				},
				"roughnessFactor":0.8999999761581421
			}
		},
		{
			"doubleSided":true,
			"name":"Sweat_Rib_1X1_319gsm_hoodie.002",
			"normalTexture":{
				"index":6
			},
			"pbrMetallicRoughness":{
				"baseColorTexture":{
					"index":7
				},
				"metallicFactor":0,
				"metallicRoughnessTexture":{
					"index":8
				},
				"roughnessFactor":0.8999999761581421
			}
		}
	],
	"meshes":[
		{
			"name":"hoodie_Rib_2X2_468gsm_hoodie_end_0.002",
			"primitives":[
				{
					"attributes":{
						"POSITION":0,
						"NORMAL":1,
						"TEXCOORD_0":2,
						"TEXCOORD_1":3
					},
					"indices":4,
					"material":0
				}
			]
		},
		{
			"name":"hoodie_Sweat_hood_Rib_1X1_319gsm_hood_0.002",
			"primitives":[
				{
					"attributes":{
						"POSITION":5,
						"NORMAL":6,
						"TEXCOORD_0":7,
						"TEXCOORD_1":8
					},
					"indices":9,
					"material":1
				}
			]
		},
		{
			"name":"hoodie_Sweat_Rib_1X1_319gsm_hoodie_0.002",
			"primitives":[
				{
					"attributes":{
						"POSITION":10,
						"NORMAL":11,
						"TEXCOORD_0":12,
						"TEXCOORD_1":13
					},
					"indices":14,
					"material":2
				}
			]
		}
	],
	"textures":[
		{
			"sampler":0,
			"source":0
		},
		{
			"sampler":0,
			"source":1
		},
		{
			"sampler":0,
			"source":2
		},
		{
			"sampler":0,
			"source":0
		},
		{
			"sampler":0,
			"source":1
		},
		{
			"sampler":0,
			"source":2
		},
		{
			"sampler":0,
			"source":0
		},
		{
			"sampler":0,
			"source":1
		},
		{
			"sampler":0,
			"source":2
		}
	],
	"images":[
		{
			"mimeType":"image/png",
			"name":"Rib_2X2_468gsm_hoodie_end_normal",
			"uri":"https://raw.githubusercontent.com/SIROBAKO/cdnFiles/main/models/texture/Rib_2X2_468gsm_hoodie_end_normal.png"
		},
		{
			"mimeType":"image/png",
			"name":"Rib_2X2_468gsm_hoodie_end_baseColor",
			"uri":"https://raw.githubusercontent.com/SIROBAKO/cdnFiles/main/models/texture/Rib_2X2_468gsm_hoodie_end_baseColor.png"
		},
		{
			"mimeType":"image/png",
			"name":"Rib_2X2_468gsm_hoodie_end_metallicRoughness",
			"uri":"https://raw.githubusercontent.com/SIROBAKO/cdnFiles/main/models/texture/Rib_2X2_468gsm_hoodie_end_metallicRoughness.png"
		}
	],
	"accessors":[
		{
			"bufferView":0,
			"componentType":5126,
			"count":5902,
			"max":[
				0.29557400941848755,
				0.9328489899635315,
				0.05923900008201599
			],
			"min":[
				-0.2972559928894043,
				0.8119869828224182,
				-0.15655000507831573
			],
			"type":"VEC3"
		},
		{
			"bufferView":1,
			"componentType":5126,
			"count":5902,
			"type":"VEC3"
		},
		{
			"bufferView":2,
			"componentType":5126,
			"count":5902,
			"type":"VEC2"
		},
		{
			"bufferView":3,
			"componentType":5126,
			"count":5902,
			"type":"VEC2"
		},
		{
			"bufferView":4,
			"componentType":5123,
			"count":29904,
			"type":"SCALAR"
		},
		{
			"bufferView":5,
			"componentType":5126,
			"count":4700,
			"max":[
				0.1019660010933876,
				1.4372730255126953,
				0.017867999151349068
			],
			"min":[
				-0.1095770001411438,
				1.3056269884109497,
				-0.2139890044927597
			],
			"type":"VEC3"
		},
		{
			"bufferView":6,
			"componentType":5126,
			"count":4700,
			"type":"VEC3"
		},
		{
			"bufferView":7,
			"componentType":5126,
			"count":4700,
			"type":"VEC2"
		},
		{
			"bufferView":8,
			"componentType":5126,
			"count":4700,
			"type":"VEC2"
		},
		{
			"bufferView":9,
			"componentType":5123,
			"count":21384,
			"type":"SCALAR"
		},
		{
			"bufferView":10,
			"componentType":5126,
			"count":58341,
			"max":[
				0.303056001663208,
				1.452746033668518,
				0.08405599743127823
			],
			"min":[
				-0.30169400572776794,
				0.8421810269355774,
				-0.22555600106716156
			],
			"type":"VEC3"
		},
		{
			"bufferView":11,
			"componentType":5126,
			"count":58341,
			"type":"VEC3"
		},
		{
			"bufferView":12,
			"componentType":5126,
			"count":58341,
			"type":"VEC2"
		},
		{
			"bufferView":13,
			"componentType":5126,
			"count":58341,
			"type":"VEC2"
		},
		{
			"bufferView":14,
			"componentType":5123,
			"count":305454,
			"type":"SCALAR"
		}
	],
	"bufferViews":[
		{
			"buffer":0,
			"byteLength":70824,
			"byteOffset":0,
			"target":34962
		},
		{
			"buffer":0,
			"byteLength":70824,
			"byteOffset":70824,
			"target":34962
		},
		{
			"buffer":0,
			"byteLength":47216,
			"byteOffset":141648,
			"target":34962
		},
		{
			"buffer":0,
			"byteLength":47216,
			"byteOffset":188864,
			"target":34962
		},
		{
			"buffer":0,
			"byteLength":59808,
			"byteOffset":236080,
			"target":34963
		},
		{
			"buffer":0,
			"byteLength":56400,
			"byteOffset":295888,
			"target":34962
		},
		{
			"buffer":0,
			"byteLength":56400,
			"byteOffset":352288,
			"target":34962
		},
		{
			"buffer":0,
			"byteLength":37600,
			"byteOffset":408688,
			"target":34962
		},
		{
			"buffer":0,
			"byteLength":37600,
			"byteOffset":446288,
			"target":34962
		},
		{
			"buffer":0,
			"byteLength":42768,
			"byteOffset":483888,
			"target":34963
		},
		{
			"buffer":0,
			"byteLength":700092,
			"byteOffset":526656,
			"target":34962
		},
		{
			"buffer":0,
			"byteLength":700092,
			"byteOffset":1226748,
			"target":34962
		},
		{
			"buffer":0,
			"byteLength":466728,
			"byteOffset":1926840,
			"target":34962
		},
		{
			"buffer":0,
			"byteLength":466728,
			"byteOffset":2393568,
			"target":34962
		},
		{
			"buffer":0,
			"byteLength":610908,
			"byteOffset":2860296,
			"target":34963
		}
	],
	"samplers":[
		{
			"magFilter":9729,
			"minFilter":9987
		}
	],
	"buffers":[
		{
			"byteLength":3471204,
			"uri":"https://raw.githubusercontent.com/SIROBAKO/cdnFiles/main/models/model.bin"
		}
	]
}
