{
	"asset":{
		"generator":"Khronos glTF Blender I/O v4.2.57",
		"version":"2.0"
	},
	"extensionsUsed":[
		"KHR_materials_specular",
		"KHR_materials_ior"
	],
	"scene":0,
	"scenes":[
		{
			"name":"Scene",
			"nodes":[
				18
			]
		}
	],
	"nodes":[
		{
			"mesh":0,
			"name":"Object_10"
		},
		{
			"mesh":1,
			"name":"Object_11"
		},
		{
			"mesh":2,
			"name":"Object_12"
		},
		{
			"mesh":3,
			"name":"Object_13"
		},
		{
			"mesh":4,
			"name":"Object_14"
		},
		{
			"mesh":5,
			"name":"Object_15"
		},
		{
			"mesh":6,
			"name":"Object_16"
		},
		{
			"mesh":7,
			"name":"Object_17"
		},
		{
			"mesh":8,
			"name":"Object_18"
		},
		{
			"mesh":9,
			"name":"Object_19"
		},
		{
			"mesh":10,
			"name":"Object_2"
		},
		{
			"mesh":11,
			"name":"Object_20"
		},
		{
			"mesh":12,
			"name":"Object_3"
		},
		{
			"mesh":13,
			"name":"Object_4"
		},
		{
			"mesh":14,
			"name":"Object_5"
		},
		{
			"mesh":15,
			"name":"Object_6"
		},
		{
			"mesh":16,
			"name":"Object_7"
		},
		{
			"children":[
				0,
				1,
				2,
				3,
				4,
				5,
				6,
				7,
				8,
				9,
				10,
				11,
				12,
				13,
				14,
				15,
				16
			],
			"name":"ONLINEVIEW.obj.cleaner.materialmerger.gles"
		},
		{
			"children":[
				17
			],
			"name":"Sketchfab_model",
			"rotation":[
				-0.7,
				0,
				0,
				0.7
			],
			"scale":[
				0.1,
				0.1,
				0.1
			]
		}
	],
	"materials":[
		{
			"doubleSided":true,
			"emissiveTexture":{
				"index":0
			},
			"extensions":{
				"KHR_materials_specular":{
					"specularColorFactor":[
						0.0,
						0.0,
						0.0
					]
				},
				"KHR_materials_ior":{
					"ior":1000
				}
			},
			"name":"Material3993",
			"pbrMetallicRoughness":{
				"baseColorTexture":{
					"index":1
				},
				"metallicFactor":0
			}
		},
		{
			"doubleSided":true,
			"emissiveTexture":{
				"index":2
			},
			"extensions":{
				"KHR_materials_specular":{
					"specularColorFactor":[
						0.0,
						0.0,
						0.0
					]
				},
				"KHR_materials_ior":{
					"ior":1000
				}
			},
			"name":"Material4000",
			"pbrMetallicRoughness":{
				"baseColorTexture":{
					"index":3
				},
				"metallicFactor":0,
				"roughnessFactor":0.9401860237121582
			}
		},
		{
			"doubleSided":true,
			"extensions":{
				"KHR_materials_specular":{
					"specularColorFactor":[
						0.0,
						0.0,
						0.0
					]
				},
				"KHR_materials_ior":{
					"ior":1000
				}
			},
			"name":"Material3996",
			"pbrMetallicRoughness":{
				"baseColorFactor":[
					0.8196079730987549,
					0.8196079730987549,
					0.8196079730987549,
					1
				],
				"metallicFactor":0,
				"roughnessFactor":0.9401860237121582
			}
		}
	],
	"meshes":[
		{
			"name":"Object_8",
			"primitives":[
				{
					"attributes":{
						"POSITION":0,
						"NORMAL":1,
						"TEXCOORD_0":2
					},
					"indices":3,
					"material":0
				}
			]
		},
		{
			"name":"Object_9",
			"primitives":[
				{
					"attributes":{
						"POSITION":4,
						"NORMAL":5,
						"TEXCOORD_0":6
					},
					"indices":7,
					"material":0
				}
			]
		},
		{
			"name":"Object_10",
			"primitives":[
				{
					"attributes":{
						"POSITION":8,
						"NORMAL":9,
						"TEXCOORD_0":10
					},
					"indices":11,
					"material":0
				}
			]
		},
		{
			"name":"Object_11",
			"primitives":[
				{
					"attributes":{
						"POSITION":12,
						"NORMAL":13,
						"TEXCOORD_0":14
					},
					"indices":15,
					"material":0
				}
			]
		},
		{
			"name":"Object_12",
			"primitives":[
				{
					"attributes":{
						"POSITION":16,
						"NORMAL":17,
						"TEXCOORD_0":18
					},
					"indices":19,
					"material":0
				}
			]
		},
		{
			"name":"Object_13",
			"primitives":[
				{
					"attributes":{
						"POSITION":20,
						"NORMAL":21,
						"TEXCOORD_0":22
					},
					"indices":23,
					"material":0
				}
			]
		},
		{
			"name":"Object_14",
			"primitives":[
				{
					"attributes":{
						"POSITION":24,
						"NORMAL":25,
						"TEXCOORD_0":26
					},
					"indices":27,
					"material":0
				}
			]
		},
		{
			"name":"Object_15",
			"primitives":[
				{
					"attributes":{
						"POSITION":28,
						"NORMAL":29,
						"TEXCOORD_0":30
					},
					"indices":31,
					"material":0
				}
			]
		},
		{
			"name":"Object_16",
			"primitives":[
				{
					"attributes":{
						"POSITION":32,
						"NORMAL":33,
						"TEXCOORD_0":34
					},
					"indices":35,
					"material":1
				}
			]
		},
		{
			"name":"Object_17",
			"primitives":[
				{
					"attributes":{
						"POSITION":36,
						"NORMAL":37,
						"TEXCOORD_0":38
					},
					"indices":39,
					"material":1
				}
			]
		},
		{
			"name":"Object_0",
			"primitives":[
				{
					"attributes":{
						"POSITION":40,
						"NORMAL":41,
						"TEXCOORD_0":42
					},
					"indices":43,
					"material":2
				}
			]
		},
		{
			"name":"Object_18",
			"primitives":[
				{
					"attributes":{
						"POSITION":44,
						"NORMAL":45,
						"TEXCOORD_0":46
					},
					"indices":47,
					"material":1
				}
			]
		},
		{
			"name":"Object_1",
			"primitives":[
				{
					"attributes":{
						"POSITION":48,
						"NORMAL":49,
						"TEXCOORD_0":50
					},
					"indices":51,
					"material":2
				}
			]
		},
		{
			"name":"Object_2",
			"primitives":[
				{
					"attributes":{
						"POSITION":52,
						"NORMAL":53,
						"TEXCOORD_0":54
					},
					"indices":55,
					"material":2
				}
			]
		},
		{
			"name":"Object_3",
			"primitives":[
				{
					"attributes":{
						"POSITION":56,
						"NORMAL":57,
						"TEXCOORD_0":58
					},
					"indices":59,
					"material":2
				}
			]
		},
		{
			"name":"Object_4",
			"primitives":[
				{
					"attributes":{
						"POSITION":60,
						"NORMAL":61,
						"TEXCOORD_0":62
					},
					"indices":63,
					"material":2
				}
			]
		},
		{
			"name":"Object_5",
			"primitives":[
				{
					"attributes":{
						"POSITION":64,
						"NORMAL":65,
						"TEXCOORD_0":66
					},
					"indices":67,
					"material":2
				}
			]
		}
	],
	"textures":[
		{
			"sampler":0,
			"source":0
		},
		{
			"sampler":0,
			"source":0
		},
		{
			"sampler":0,
			"source":0
		},
		{
			"sampler":0,
			"source":0
		}
	],
	"images":[
		{
			"mimeType":"image/png",
			"name":"Material3993_diffuse",
			"uri":"texture.png"
		}
	],
	"accessors":[
		{
			"bufferView":0,
			"componentType":5126,
			"count":66049,
			"max":[
				221.4652557373047,
				136.19882202148438,
				1669.4495849609375
			],
			"min":[
				-222.8605499267578,
				-144.0868377685547,
				616.8919067382812
			],
			"type":"VEC3"
		},
		{
			"bufferView":1,
			"componentType":5126,
			"count":66049,
			"type":"VEC3"
		},
		{
			"bufferView":2,
			"componentType":5126,
			"count":66049,
			"type":"VEC2"
		},
		{
			"bufferView":3,
			"componentType":5125,
			"count":339405,
			"type":"SCALAR"
		},
		{
			"bufferView":4,
			"componentType":5126,
			"count":8604,
			"max":[
				160.682861328125,
				102.72423553466797,
				1166.6597900390625
			],
			"min":[
				-6.450136184692383,
				-144.08595275878906,
				852.5928955078125
			],
			"type":"VEC3"
		},
		{
			"bufferView":5,
			"componentType":5126,
			"count":8604,
			"type":"VEC3"
		},
		{
			"bufferView":6,
			"componentType":5126,
			"count":8604,
			"type":"VEC2"
		},
		{
			"bufferView":7,
			"componentType":5123,
			"count":45003,
			"type":"SCALAR"
		},
		{
			"bufferView":8,
			"componentType":5126,
			"count":64527,
			"max":[
				220.02708435058594,
				136.6524200439453,
				1166.5843505859375
			],
			"min":[
				-226.74838256835938,
				-146.19627380371094,
				599.5248413085938
			],
			"type":"VEC3"
		},
		{
			"bufferView":9,
			"componentType":5126,
			"count":64527,
			"type":"VEC3"
		},
		{
			"bufferView":10,
			"componentType":5126,
			"count":64527,
			"type":"VEC2"
		},
		{
			"bufferView":11,
			"componentType":5123,
			"count":321384,
			"type":"SCALAR"
		},
		{
			"bufferView":12,
			"componentType":5126,
			"count":64912,
			"max":[
				200.24853515625,
				164.39210510253906,
				1664.79833984375
			],
			"min":[
				-223.27947998046875,
				-147.14599609375,
				600.0635375976562
			],
			"type":"VEC3"
		},
		{
			"bufferView":13,
			"componentType":5126,
			"count":64912,
			"type":"VEC3"
		},
		{
			"bufferView":14,
			"componentType":5126,
			"count":64912,
			"type":"VEC2"
		},
		{
			"bufferView":15,
			"componentType":5123,
			"count":328998,
			"type":"SCALAR"
		},
		{
			"bufferView":16,
			"componentType":5126,
			"count":65714,
			"max":[
				199.75296020507812,
				164.3669891357422,
				1662.6710205078125
			],
			"min":[
				-200.8583221435547,
				-174.00831604003906,
				1115.003173828125
			],
			"type":"VEC3"
		},
		{
			"bufferView":17,
			"componentType":5126,
			"count":65714,
			"type":"VEC3"
		},
		{
			"bufferView":18,
			"componentType":5126,
			"count":65714,
			"type":"VEC2"
		},
		{
			"bufferView":19,
			"componentType":5125,
			"count":307710,
			"type":"SCALAR"
		},
		{
			"bufferView":20,
			"componentType":5126,
			"count":64945,
			"max":[
				200.25619506835938,
				136.73580932617188,
				1669.4425048828125
			],
			"min":[
				-226.7395782470703,
				-174.00831604003906,
				603.5691528320312
			],
			"type":"VEC3"
		},
		{
			"bufferView":21,
			"componentType":5126,
			"count":64945,
			"type":"VEC3"
		},
		{
			"bufferView":22,
			"componentType":5126,
			"count":64945,
			"type":"VEC2"
		},
		{
			"bufferView":23,
			"componentType":5123,
			"count":284313,
			"type":"SCALAR"
		},
		{
			"bufferView":24,
			"componentType":5126,
			"count":65262,
			"max":[
				225.3446502685547,
				138.33131408691406,
				1120.3447265625
			],
			"min":[
				-219.19625854492188,
				-146.45193481445312,
				601.6331787109375
			],
			"type":"VEC3"
		},
		{
			"bufferView":25,
			"componentType":5126,
			"count":65262,
			"type":"VEC3"
		},
		{
			"bufferView":26,
			"componentType":5126,
			"count":65262,
			"type":"VEC2"
		},
		{
			"bufferView":27,
			"componentType":5123,
			"count":324882,
			"type":"SCALAR"
		},
		{
			"bufferView":28,
			"componentType":5126,
			"count":10796,
			"max":[
				216.31246948242188,
				129.02259826660156,
				1072.9515380859375
			],
			"min":[
				25.60213279724121,
				-128.79690551757812,
				713.77978515625
			],
			"type":"VEC3"
		},
		{
			"bufferView":29,
			"componentType":5126,
			"count":10796,
			"type":"VEC3"
		},
		{
			"bufferView":30,
			"componentType":5126,
			"count":10796,
			"type":"VEC2"
		},
		{
			"bufferView":31,
			"componentType":5123,
			"count":39123,
			"type":"SCALAR"
		},
		{
			"bufferView":32,
			"componentType":5126,
			"count":7496,
			"max":[
				207.9109649658203,
				134.6204376220703,
				1677.86669921875
			],
			"min":[
				-209.06813049316406,
				-79.05171203613281,
				1448.1295166015625
			],
			"type":"VEC3"
		},
		{
			"bufferView":33,
			"componentType":5126,
			"count":7496,
			"type":"VEC3"
		},
		{
			"bufferView":34,
			"componentType":5126,
			"count":7496,
			"type":"VEC2"
		},
		{
			"bufferView":35,
			"componentType":5123,
			"count":41322,
			"type":"SCALAR"
		},
		{
			"bufferView":36,
			"componentType":5126,
			"count":7496,
			"max":[
				207.4601287841797,
				134.13917541503906,
				1677.483154296875
			],
			"min":[
				-208.6206512451172,
				-78.59921264648438,
				1448.31884765625
			],
			"type":"VEC3"
		},
		{
			"bufferView":37,
			"componentType":5126,
			"count":7496,
			"type":"VEC3"
		},
		{
			"bufferView":38,
			"componentType":5126,
			"count":7496,
			"type":"VEC2"
		},
		{
			"bufferView":39,
			"componentType":5123,
			"count":41322,
			"type":"SCALAR"
		},
		{
			"bufferView":40,
			"componentType":5126,
			"count":64504,
			"max":[
				219.5279998779297,
				136.1840057373047,
				1164.404296875
			],
			"min":[
				-226.24856567382812,
				-145.69642639160156,
				599.9588012695312
			],
			"type":"VEC3"
		},
		{
			"bufferView":41,
			"componentType":5126,
			"count":64504,
			"type":"VEC3"
		},
		{
			"bufferView":42,
			"componentType":5126,
			"count":64504,
			"type":"VEC2"
		},
		{
			"bufferView":43,
			"componentType":5123,
			"count":321384,
			"type":"SCALAR"
		},
		{
			"bufferView":44,
			"componentType":5126,
			"count":19924,
			"max":[
				207.92044067382812,
				134.62107849121094,
				1677.8939208984375
			],
			"min":[
				-209.07843017578125,
				-79.06056213378906,
				1448.0843505859375
			],
			"type":"VEC3"
		},
		{
			"bufferView":45,
			"componentType":5126,
			"count":19924,
			"type":"VEC3"
		},
		{
			"bufferView":46,
			"componentType":5126,
			"count":19924,
			"type":"VEC2"
		},
		{
			"bufferView":47,
			"componentType":5123,
			"count":96240,
			"type":"SCALAR"
		},
		{
			"bufferView":48,
			"componentType":5126,
			"count":64903,
			"max":[
				197.32275390625,
				161.3932647705078,
				1663.329345703125
			],
			"min":[
				-222.85427856445312,
				-146.6470947265625,
				600.5382690429688
			],
			"type":"VEC3"
		},
		{
			"bufferView":49,
			"componentType":5126,
			"count":64903,
			"type":"VEC3"
		},
		{
			"bufferView":50,
			"componentType":5126,
			"count":64903,
			"type":"VEC2"
		},
		{
			"bufferView":51,
			"componentType":5123,
			"count":328998,
			"type":"SCALAR"
		},
		{
			"bufferView":52,
			"componentType":5126,
			"count":65714,
			"max":[
				196.78738403320312,
				161.36915588378906,
				1661.1641845703125
			],
			"min":[
				-197.98435974121094,
				-171.03868103027344,
				1116.8223876953125
			],
			"type":"VEC3"
		},
		{
			"bufferView":53,
			"componentType":5126,
			"count":65714,
			"type":"VEC3"
		},
		{
			"bufferView":54,
			"componentType":5126,
			"count":65714,
			"type":"VEC2"
		},
		{
			"bufferView":55,
			"componentType":5125,
			"count":307710,
			"type":"SCALAR"
		},
		{
			"bufferView":56,
			"componentType":5126,
			"count":64964,
			"max":[
				197.31509399414062,
				133.8603515625,
				1666.8189697265625
			],
			"min":[
				-226.23988342285156,
				-171.03868103027344,
				603.8359985351562
			],
			"type":"VEC3"
		},
		{
			"bufferView":57,
			"componentType":5126,
			"count":64964,
			"type":"VEC3"
		},
		{
			"bufferView":58,
			"componentType":5126,
			"count":64964,
			"type":"VEC2"
		},
		{
			"bufferView":59,
			"componentType":5123,
			"count":284313,
			"type":"SCALAR"
		},
		{
			"bufferView":60,
			"componentType":5126,
			"count":65264,
			"max":[
				224.84498596191406,
				137.83143615722656,
				1119.9964599609375
			],
			"min":[
				-218.697265625,
				-145.95285034179688,
				602.08203125
			],
			"type":"VEC3"
		},
		{
			"bufferView":61,
			"componentType":5126,
			"count":65264,
			"type":"VEC3"
		},
		{
			"bufferView":62,
			"componentType":5126,
			"count":65264,
			"type":"VEC2"
		},
		{
			"bufferView":63,
			"componentType":5123,
			"count":324882,
			"type":"SCALAR"
		},
		{
			"bufferView":64,
			"componentType":5126,
			"count":10790,
			"max":[
				215.81369018554688,
				128.5241241455078,
				1072.8878173828125
			],
			"min":[
				25.899229049682617,
				-128.29690551757812,
				713.7501220703125
			],
			"type":"VEC3"
		},
		{
			"bufferView":65,
			"componentType":5126,
			"count":10790,
			"type":"VEC3"
		},
		{
			"bufferView":66,
			"componentType":5126,
			"count":10790,
			"type":"VEC2"
		},
		{
			"bufferView":67,
			"componentType":5123,
			"count":39123,
			"type":"SCALAR"
		}
	],
	"bufferViews":[
		{
			"buffer":0,
			"byteLength":792588,
			"byteOffset":0,
			"target":34962
		},
		{
			"buffer":0,
			"byteLength":792588,
			"byteOffset":792588,
			"target":34962
		},
		{
			"buffer":0,
			"byteLength":528392,
			"byteOffset":1585176,
			"target":34962
		},
		{
			"buffer":0,
			"byteLength":1357620,
			"byteOffset":2113568,
			"target":34963
		},
		{
			"buffer":0,
			"byteLength":103248,
			"byteOffset":3471188,
			"target":34962
		},
		{
			"buffer":0,
			"byteLength":103248,
			"byteOffset":3574436,
			"target":34962
		},
		{
			"buffer":0,
			"byteLength":68832,
			"byteOffset":3677684,
			"target":34962
		},
		{
			"buffer":0,
			"byteLength":90006,
			"byteOffset":3746516,
			"target":34963
		},
		{
			"buffer":0,
			"byteLength":774324,
			"byteOffset":3836524,
			"target":34962
		},
		{
			"buffer":0,
			"byteLength":774324,
			"byteOffset":4610848,
			"target":34962
		},
		{
			"buffer":0,
			"byteLength":516216,
			"byteOffset":5385172,
			"target":34962
		},
		{
			"buffer":0,
			"byteLength":642768,
			"byteOffset":5901388,
			"target":34963
		},
		{
			"buffer":0,
			"byteLength":778944,
			"byteOffset":6544156,
			"target":34962
		},
		{
			"buffer":0,
			"byteLength":778944,
			"byteOffset":7323100,
			"target":34962
		},
		{
			"buffer":0,
			"byteLength":519296,
			"byteOffset":8102044,
			"target":34962
		},
		{
			"buffer":0,
			"byteLength":657996,
			"byteOffset":8621340,
			"target":34963
		},
		{
			"buffer":0,
			"byteLength":788568,
			"byteOffset":9279336,
			"target":34962
		},
		{
			"buffer":0,
			"byteLength":788568,
			"byteOffset":10067904,
			"target":34962
		},
		{
			"buffer":0,
			"byteLength":525712,
			"byteOffset":10856472,
			"target":34962
		},
		{
			"buffer":0,
			"byteLength":1230840,
			"byteOffset":11382184,
			"target":34963
		},
		{
			"buffer":0,
			"byteLength":779340,
			"byteOffset":12613024,
			"target":34962
		},
		{
			"buffer":0,
			"byteLength":779340,
			"byteOffset":13392364,
			"target":34962
		},
		{
			"buffer":0,
			"byteLength":519560,
			"byteOffset":14171704,
			"target":34962
		},
		{
			"buffer":0,
			"byteLength":568626,
			"byteOffset":14691264,
			"target":34963
		},
		{
			"buffer":0,
			"byteLength":783144,
			"byteOffset":15259892,
			"target":34962
		},
		{
			"buffer":0,
			"byteLength":783144,
			"byteOffset":16043036,
			"target":34962
		},
		{
			"buffer":0,
			"byteLength":522096,
			"byteOffset":16826180,
			"target":34962
		},
		{
			"buffer":0,
			"byteLength":649764,
			"byteOffset":17348276,
			"target":34963
		},
		{
			"buffer":0,
			"byteLength":129552,
			"byteOffset":17998040,
			"target":34962
		},
		{
			"buffer":0,
			"byteLength":129552,
			"byteOffset":18127592,
			"target":34962
		},
		{
			"buffer":0,
			"byteLength":86368,
			"byteOffset":18257144,
			"target":34962
		},
		{
			"buffer":0,
			"byteLength":78246,
			"byteOffset":18343512,
			"target":34963
		},
		{
			"buffer":0,
			"byteLength":89952,
			"byteOffset":18421760,
			"target":34962
		},
		{
			"buffer":0,
			"byteLength":89952,
			"byteOffset":18511712,
			"target":34962
		},
		{
			"buffer":0,
			"byteLength":59968,
			"byteOffset":18601664,
			"target":34962
		},
		{
			"buffer":0,
			"byteLength":82644,
			"byteOffset":18661632,
			"target":34963
		},
		{
			"buffer":0,
			"byteLength":89952,
			"byteOffset":18744276,
			"target":34962
		},
		{
			"buffer":0,
			"byteLength":89952,
			"byteOffset":18834228,
			"target":34962
		},
		{
			"buffer":0,
			"byteLength":59968,
			"byteOffset":18924180,
			"target":34962
		},
		{
			"buffer":0,
			"byteLength":82644,
			"byteOffset":18984148,
			"target":34963
		},
		{
			"buffer":0,
			"byteLength":774048,
			"byteOffset":19066792,
			"target":34962
		},
		{
			"buffer":0,
			"byteLength":774048,
			"byteOffset":19840840,
			"target":34962
		},
		{
			"buffer":0,
			"byteLength":516032,
			"byteOffset":20614888,
			"target":34962
		},
		{
			"buffer":0,
			"byteLength":642768,
			"byteOffset":21130920,
			"target":34963
		},
		{
			"buffer":0,
			"byteLength":239088,
			"byteOffset":21773688,
			"target":34962
		},
		{
			"buffer":0,
			"byteLength":239088,
			"byteOffset":22012776,
			"target":34962
		},
		{
			"buffer":0,
			"byteLength":159392,
			"byteOffset":22251864,
			"target":34962
		},
		{
			"buffer":0,
			"byteLength":192480,
			"byteOffset":22411256,
			"target":34963
		},
		{
			"buffer":0,
			"byteLength":778836,
			"byteOffset":22603736,
			"target":34962
		},
		{
			"buffer":0,
			"byteLength":778836,
			"byteOffset":23382572,
			"target":34962
		},
		{
			"buffer":0,
			"byteLength":519224,
			"byteOffset":24161408,
			"target":34962
		},
		{
			"buffer":0,
			"byteLength":657996,
			"byteOffset":24680632,
			"target":34963
		},
		{
			"buffer":0,
			"byteLength":788568,
			"byteOffset":25338628,
			"target":34962
		},
		{
			"buffer":0,
			"byteLength":788568,
			"byteOffset":26127196,
			"target":34962
		},
		{
			"buffer":0,
			"byteLength":525712,
			"byteOffset":26915764,
			"target":34962
		},
		{
			"buffer":0,
			"byteLength":1230840,
			"byteOffset":27441476,
			"target":34963
		},
		{
			"buffer":0,
			"byteLength":779568,
			"byteOffset":28672316,
			"target":34962
		},
		{
			"buffer":0,
			"byteLength":779568,
			"byteOffset":29451884,
			"target":34962
		},
		{
			"buffer":0,
			"byteLength":519712,
			"byteOffset":30231452,
			"target":34962
		},
		{
			"buffer":0,
			"byteLength":568626,
			"byteOffset":30751164,
			"target":34963
		},
		{
			"buffer":0,
			"byteLength":783168,
			"byteOffset":31319792,
			"target":34962
		},
		{
			"buffer":0,
			"byteLength":783168,
			"byteOffset":32102960,
			"target":34962
		},
		{
			"buffer":0,
			"byteLength":522112,
			"byteOffset":32886128,
			"target":34962
		},
		{
			"buffer":0,
			"byteLength":649764,
			"byteOffset":33408240,
			"target":34963
		},
		{
			"buffer":0,
			"byteLength":129480,
			"byteOffset":34058004,
			"target":34962
		},
		{
			"buffer":0,
			"byteLength":129480,
			"byteOffset":34187484,
			"target":34962
		},
		{
			"buffer":0,
			"byteLength":86320,
			"byteOffset":34316964,
			"target":34962
		},
		{
			"buffer":0,
			"byteLength":78246,
			"byteOffset":34403284,
			"target":34963
		}
	],
	"samplers":[
		{
			"magFilter":9729,
			"minFilter":9987
		}
	],
	"buffers":[
		{
			"byteLength":34481532,
			"uri":"model.bin"
		}
	]
}
